<?xml version="1.0" encoding="UTF-8" standalone="no"?>
<!DOCTYPE svg PUBLIC "-//W3C//DTD SVG 1.1//EN" "http://www.w3.org/Graphics/SVG/1.1/DTD/svg11.dtd">
<svg width="100%" height="100%" viewBox="0 0 550 344" version="1.1" xmlns="http://www.w3.org/2000/svg" xmlns:xlink="http://www.w3.org/1999/xlink" xml:space="preserve" xmlns:serif="http://www.serif.com/" style="fill-rule:evenodd;clip-rule:evenodd;stroke-linejoin:round;stroke-miterlimit:2;">
    <g id="Artboard1" transform="matrix(0.645535,0,0,0.386072,-375.764,-1023.39)">
        <rect x="582.097" y="2650.78" width="851.074" height="889.355" style="fill:none;"/>
        <g transform="matrix(6.4546,0,0,10.7925,985.614,2699.48)">
            <g id="Logo-Dark-bg" serif:id="Logo Dark bg">
                <path d="M0,70.713C-3.263,70.892 -5.688,68.655 -5.83,66.072C-5.961,63.678 -4.328,61.198 -1.065,61.02C3.807,60.753 7.384,66.456 7.384,66.456C7.384,66.456 5.542,70.409 0,70.713M35.853,12.441C32.521,17.422 29.736,22.448 27.306,27.356C21.031,27.686 9.888,28.453 -1.769,30.127C5.345,17.821 11.972,8.919 21.439,3.775C35.783,-4.019 -25.506,-11.373 -43.898,19.943C-46.966,25.167 -43.903,36.799 -31.046,33.293C-27.398,32.298 -24.579,28.235 -29.72,26.328C-36.603,23.775 -24.248,2.199 12.318,2.117C12.318,2.117 -1.985,8.872 -15.207,32.488C-19.681,33.445 -23.977,34.569 -27.831,35.889C-33.845,37.949 -35.864,39.458 -35.524,41.833C-35.209,44.032 -31.276,43.509 -19.911,40.722C-29.602,56.723 -36.114,60.737 -42.321,60.737C-49.369,60.737 -50.67,56.253 -50.67,52.962C-50.67,49.671 -50.916,48.64 -52.832,48.69C-54.747,48.738 -65.847,55.368 -59.806,68.728C-53.765,82.086 -27.979,78.399 -13.606,51.811C-10.891,46.786 -8.4,42.091 -6.024,37.737C1.521,36.556 10.139,36.014 23.258,36.071C18.947,45.887 15.698,54.749 11.812,61.151C8.401,57.926 3.53,54.694 -2.109,55.003C-9.481,55.406 -13.173,61.009 -12.876,66.421C-12.556,72.257 -7.076,77.311 0.297,76.906C5.801,76.606 9.689,74.711 12.32,72.682C13.003,72.218 13.704,71.68 14.424,71.061C27.31,77.94 48.689,76.839 57.385,62.588C60.9,56.827 61.37,44.461 52.347,44.461C47.564,44.461 46.341,47.899 48.103,51.769C51.43,59.076 34.259,74.277 18.861,66.455C24.398,59.775 30.996,48.481 39.186,30C43.149,21.056 52.063,1.067 57.535,3.001C60.916,4.197 54.056,10.829 60.133,12.896C62.135,13.577 65.881,14.112 67.615,9.207C72.711,-5.215 50.931,-10.099 35.853,12.441" style="fill:rgb(153,167,192);fill-rule:nonzero;"/>
            </g>
        </g>
    </g>
</svg>
